<svg xmlns="http://www.w3.org/2000/svg" width="24" height="24" viewBox="0 0 24 24" fill="none">
  <path d="M13.5945 19.5427C11.1232 20.0567 8.45915 19.3838 6.53394 17.4597C3.77306 14.6691 3.54847 10.307 5.95581 7.32397L5.96753 7.3103H5.05054C4.70157 7.3103 4.41584 7.02434 4.41577 6.67651C4.41606 6.50842 4.48243 6.34709 4.60132 6.22827C4.72037 6.10942 4.88232 6.04272 5.05054 6.04272H7.6189C7.70175 6.04337 7.78391 6.06 7.86011 6.09253C7.93643 6.12519 8.00544 6.17356 8.06323 6.23315H8.06519C8.19129 6.32805 8.25366 6.48553 8.25366 6.67651V9.24487C8.25366 9.59277 7.96777 9.87866 7.61987 9.87866C7.27105 9.87846 6.98608 9.59266 6.98608 9.24487V8.03296L6.97144 8.05151C5.98256 9.27936 5.48391 10.831 5.573 12.405C5.66213 13.9788 6.33201 15.4637 7.45288 16.572C9.02977 18.1467 11.2503 18.7275 13.3093 18.3083L13.3103 18.3074C13.4998 18.2446 13.752 18.3081 13.8787 18.4958L13.8806 18.4978C13.9408 18.5549 13.9885 18.6237 14.0212 18.7C14.054 18.7762 14.071 18.8582 14.071 18.9412C14.071 19.0242 14.054 19.107 14.0212 19.1833C14.0049 19.2214 13.9853 19.2579 13.9617 19.2917L13.8806 19.3855C13.7965 19.4563 13.6992 19.5094 13.5945 19.5427ZM10.8669 4.37476C13.2118 4.05222 15.6494 4.75809 17.447 6.55347C18.7751 7.87841 19.5728 9.64317 19.6912 11.5154C19.8095 13.3876 19.2402 15.2388 18.0896 16.7205L18.0789 16.7341H18.9636V16.7361C19.1381 16.7361 19.2886 16.7915 19.3953 16.8904C19.5019 16.9892 19.5652 17.1314 19.5652 17.3054C19.5652 17.6544 19.2793 17.9382 18.9314 17.9382H16.3601C16.2775 17.9375 16.1958 17.9208 16.1199 17.8884C16.0437 17.856 15.9745 17.8081 15.9167 17.7488H15.9158C15.7896 17.6539 15.7263 17.4964 15.7263 17.3054V14.7371C15.7269 14.5691 15.7941 14.4076 15.9128 14.2888C16.0315 14.1702 16.1924 14.104 16.3601 14.1033C16.5281 14.1036 16.6895 14.17 16.8083 14.2888C16.9272 14.4076 16.9946 14.569 16.9949 14.7371V15.949L17.0095 15.9304C17.9986 14.7027 18.4971 13.151 18.408 11.5769C18.3188 10.0029 17.6484 8.51816 16.5271 7.40991C15.8188 6.70414 14.9553 6.17376 14.0056 5.86108C13.0559 5.54844 12.0464 5.46214 11.0574 5.60913H11.0564C10.8337 5.67322 10.6117 5.60949 10.4529 5.4519V5.45093C10.3929 5.39381 10.3449 5.32492 10.3123 5.24878C10.2796 5.17264 10.2625 5.0904 10.2625 5.00757C10.2625 4.92474 10.2796 4.84248 10.3123 4.76636C10.345 4.69024 10.3928 4.6213 10.4529 4.56421H10.4539C10.5055 4.5056 10.5684 4.45806 10.6394 4.42554C10.7105 4.393 10.7878 4.37553 10.866 4.37476H10.8669Z" fill="#8592A6" stroke="#8592A6" stroke-width="0.0172194"/>
</svg>
